/* XPM */
static char * bluej_icon2_xpm[] = {
"48 48 109 2",
"  	c None",
". 	c #CECEC6",
"+ 	c #A5A5A5",
"@ 	c #D6D6D6",
"# 	c #847B7B",
"$ 	c #313131",
"% 	c #182129",
"& 	c #081821",
"* 	c #080808",
"= 	c #393939",
"- 	c #949494",
"; 	c #B5B5B5",
"> 	c #ADB5B5",
", 	c #E7E7E7",
"' 	c #7B7B7B",
") 	c #424A4A",
"! 	c #29394A",
"~ 	c #293952",
"{ 	c #425A7B",
"] 	c #5A84AD",
"^ 	c #5A84B5",
"/ 	c #4A6B94",
"( 	c #314A63",
"_ 	c #314A6B",
": 	c #395273",
"< 	c #394252",
"[ 	c #525252",
"} 	c #A5A5AD",
"| 	c #737373",
"1 	c #212129",
"2 	c #21394A",
"3 	c #638CBD",
"4 	c #6384B5",
"5 	c #638CB5",
"6 	c #6394C6",
"7 	c #000810",
"8 	c #000000",
"9 	c #5A5A5A",
"0 	c #BDBDBD",
"a 	c #212121",
"b 	c #31425A",
"c 	c #527BA5",
"d 	c #638CC6",
"e 	c #848484",
"f 	c #182121",
"g 	c #5A8CB5",
"h 	c #39526B",
"i 	c #080810",
"j 	c #6B6B6B",
"k 	c #C6CECE",
"l 	c #C6CED6",
"m 	c #6384AD",
"n 	c #212118",
"o 	c #181010",
"p 	c #7394BD",
"q 	c #738CB5",
"r 	c #638CAD",
"s 	c #6B8CB5",
"t 	c #6B94BD",
"u 	c #D6E7F7",
"v 	c #CED6E7",
"w 	c #C6D6E7",
"x 	c #BDCEE7",
"y 	c #B5C6DE",
"z 	c #BDCEDE",
"A 	c #9CB5C6",
"B 	c #52637B",
"C 	c #212939",
"D 	c #8C8C8C",
"E 	c #CECECE",
"F 	c #101010",
"G 	c #DEDEDE",
"H 	c #C6C6C6",
"I 	c #081010",
"J 	c #292929",
"K 	c #4A4A4A",
"L 	c #8C8C84",
"M 	c #5A7BAD",
"N 	c #ADADAD",
"O 	c #636363",
"P 	c #182131",
"Q 	c #424242",
"R 	c #101821",
"S 	c #181818",
"T 	c #4A6B8C",
"U 	c #9C9C9C",
"V 	c #081018",
"W 	c #213142",
"X 	c #426384",
"Y 	c #637384",
"Z 	c #182939",
"` 	c #DEE7E7",
" .	c #9CB5CE",
"..	c #101829",
"+.	c #849CBD",
"@.	c #B5CEDE",
"#.	c #000008",
"$.	c #8CA5C6",
"%.	c #5284AD",
"&.	c #527BAD",
"*.	c #6B94C6",
"=.	c #526B8C",
"-.	c #6B8CBD",
";.	c #8CADCE",
">.	c #E7EFF7",
",.	c #D6DEEF",
"'.	c #CEDEEF",
").	c #84A5C6",
"!.	c #E7EFEF",
"                                                                                                ",
"                                                                                                ",
"                                                                                                ",
"                                                                                                ",
"                                                                                                ",
"                                                                                                ",
"                                                                                                ",
"                                                                                                ",
"                                                                                                ",
"                                                    . + @                                       ",
"                                              @ # $ % & * = - ; > ; ,                           ",
"                                        @ ' ) ! ~ { ] ^ / ( _ : : ( < [ }                       ",
"                                    , | 1 2 / ^ 3 3 ^ 4 5 3 3 3 3 6 ^ 7 8 9                     ",
"                                  0 a b c d 5 4 ^ ^ 5 ^ ^ ^ 4 ^ 3 c b 8 8 8 e                   ",
"                                ; f : 3 g 4 ^ ^ g 4 ^ ^ 5 ^ 4 g h i 8 $ j 9 k                   ",
"                              l * : d ^ ^ ^ ] 4 ^ ] ^ m ^ ^ 3 ! 8 8 n ,                         ",
"                            , o % p q r q r r r r q r s t 3 ( 8 8 8 1                           ",
"                            ' $ l u v w w x y z w w v A B C 8 8 8 8 8 D                         ",
"                          E F G                       H 8 8 8 8 8 8 I I k                       ",
"                          J 8 K           E L 0       ; 8 8 8 8 8 I M : =                       ",
"                        D 8 8 8 [       N F 8 8 O     E 8 8 8 8 8 2 3 3 P N                     ",
"                      E F $ a 8 8 G     9 8 8 8 '       F 8 8 8 8 { 3 3 h n                     ",
"                    , a F   , $ 8 Q H   [ 8 8 O       G * 8 8 8 R ^ 5 ^ ^ 7 O                   ",
"                  + a 8 F     @ S 8 8 F ; E E         ; 8 8 8 8 ( 3 ^ ^ 3 T i N                 ",
"              + a 8 8 8 8 j     @ j [ U               ' 8 8 8 V M 5 ^ 4 ^ 3 : S ,               ",
"          @ K 8 8 8 8 8 8 8 |                         a 8 8 8 { 3 ^ ^ ] 4 ^ 3 W |               ",
"        + S 8 8 8 8 8 8 8 8 8 -                     0 8 8 8 R ^ 5 ^ 5 ^ 5 ^ 3 _ Q               ",
"        F 8 8 8 8 8 8 8 8 8 8 e                     [ 8 8 8 X 3 ^ 4 ] ^ 4 ^ 3 ( Q               ",
"        0 + + + U + + + - Q 8 ;                   + 8 8 8 P s 4 ^ ^ 5 ^ r ^ 3 X o               ",
"                            j j                 E F 8 8 o Y p ^ m ^ ^ 4 ^ 4 ^ 5 Z O             ",
"                            , J ,             0 S 8 8 j `  .r ^ 4 g m g ^ 5 ^ 4 ^ ..O           ",
"                              | N           j 8 8 $ N     +.] ^ g 4 ^ ^ 4 ] 4 ^ 5 c V D         ",
"                              U D         = 8 F D       @.r ^ 4 ] ^ 5 ^ r ^ g 4 ^ 3 T #.-       ",
"                              N '         O j G         $.m ^ ^ 4 ^ m ^ ^ 4 ] %.&.^ *.=.j       ",
"                              N '                     w r ^ 4 ^ 5 ^ ^ ] %.^ -.;.z v >.          ",
"                              D -                     $.^ 4 g ] &.] s ;.y ,.                    ",
"                              Q 0                   '.r ^ ] &.-.;.z                             ",
"                            N 8 G                    .M ] ).w                                   ",
"                            9 =                   '.q  .,.                                      ",
"                            = @                   w !.                                          ",
"                          , U                                                                   ",
"                                                                                                ",
"                                                                                                ",
"                                                                                                ",
"                                                                                                ",
"                                                                                                ",
"                                                                                                ",
"                                                                                                "};
